<svg xmlns="http://www.w3.org/2000/svg" width="800" height="1000" onload="init(evt)"> 
 
  
  <style>
  		.territory:hover{
			fill:           #22aa44;
		}
  		.compass{
  			fill:			#fff;
  			stroke:			#000;
  			stroke-width:	1.5;
  		}
   		.button{
		    fill:           	#225EA8;
			stroke:   			#0C2C84;
			stroke-miterlimit:	6;
			stroke-linecap:		round;
		}
		.button:hover{
			stroke-width:   	2;
		}
		.plus-minus{
			fill:	#fff;
			pointer-events: none;
		}
		  </style>
  <script type="text/ecmascript">
    <![CDATA[
    var svgNS = "http://www.w3.org/2000/svg";
    var re1   = /matrix\((\S+) (\S+) (\S+) (\S+) (\S+) (\S+)\)/;
    var re2   = /translate\((\S+) (\S+)\)/;
	var trans_matrix = [1,0,0,1,0,0]

    function init(evt)
    {
        if ( window.svgDocument == null )
        {
            svgDocument = evt.target.ownerDocument;
        }
        mapTransform = svgDocument.getElementById("viewport");
        nameTranslate = svgDocument.getElementById("names");
    }
   

    function pan(dx, dy)
    {
    
		var current_transform = mapTransform.getAttributeNS(null, "transform");
		var match = re1.exec(current_transform);
     
    	match[5] = parseFloat(match[5]) + dx;
    	match[6] = parseFloat(match[6]) + dy;
    
    	new_transform = "matrix(" +  match.slice(1).join(' ') + ")";
    	mapTransform.setAttributeNS(null, "transform", new_transform);
        
    	/*for (var i=0; i<nameTranslate.childNodes.length; i++)
    	{
    		if (nameTranslate.childNodes[i].nodeName == "text")
    		{
    			var child = nameTranslate.childNodes[i];
    			var x = parseFloat(child.getAttributeNS(null, "x"));
    			var y = parseFloat(child.getAttributeNS(null, "y"));
		    	var new_x = x + dx;
    			var new_y = y + dy;
    			child.setAttributeNS(null, "x", new_x);
    			child.setAttributeNS(null, "y", new_y);
    		}
    	}*/
    }   

    function zoom(scale)
	{
		var current_transform = mapTransform.getAttributeNS(null, "transform");
		var match = re1.exec(current_transform);
            
       	match[1] = parseFloat(match[1]) * scale;
        match[2] = parseFloat(match[2]) * scale;
    	match[3] = parseFloat(match[3]) * scale;
    	match[4] = parseFloat(match[4]) * scale;
    	match[5] = parseFloat(match[5]) * scale + (1-scale)*250;
    	match[6] = parseFloat(match[6]) * scale + (1-scale)*150;
    
    	new_transform = "matrix(" +  match.slice(1).join(' ') + ")";
    	mapTransform.setAttributeNS(null, "transform", new_transform);

    	for (var i=0; i<nameTranslate.childNodes.length; i++)
    	{
    		if (nameTranslate.childNodes[i].nodeName == "text")
    		{
    			var child = nameTranslate.childNodes[i];
    			var x = parseFloat(child.getAttributeNS(null, "x"));
    			var y = parseFloat(child.getAttributeNS(null, "y"));
		    	var new_x = 250 - (250 - x) * scale;
    			var new_y = 150 - (150 - y) * scale;
    			child.setAttributeNS(null, "x", new_x);
    			child.setAttributeNS(null, "y", new_y);
    		}
    	}

    }
    
  ]]></script>
<g id="viewport" transform="matrix(1 0 0 1 200 200)">	<line x1="50" y1="25" x2="50" y2="700" stroke-width="2" stroke="black" />
 <g fill="#000000" font-family="Arial,Helvetica" font-weight="bold" text-anchor="start" font-size="22px">
<text x="55" y="50">Net1</text></g><ellipse cx="50" cy="25" rx="5" ry="5" stroke="black" stroke-width="2" fill="black" /> <ellipse cx="50" cy="700" rx="5" ry="5" stroke="black" stroke-width="2" fill="black" /> 	<line x1="250" y1="25" x2="350" y2="25" stroke-width="2" stroke="black" />
 <ellipse cx="350" cy="25" rx="5" ry="5" stroke="black" stroke-width="2" fill="black" /> <g transform="translate(300,25)">
	<line x1="50" y1="0" x2="50" y2="20" 
	stroke-width="2" stroke="black" />
	<line x1="20" y1="20" x2="80" y2="20" 
	stroke-width="2" stroke="black" />
	<line x1="30" y1="30" x2="70" y2="30" 
	stroke-width="2" stroke="black" />
	<line x1="40" y1="40" x2="60" y2="40" 
	stroke-width="2" stroke="black" />
	<line x1="45" y1="50" x2="55" y2="50" 
	stroke-width="2" stroke="black" /></g>	<line x1="250" y1="25" x2="250" y2="700" stroke-width="2" stroke="black" />
 <g fill="#000000" font-family="Arial,Helvetica" font-weight="bold" text-anchor="start" font-size="22px">
<text x="255" y="50">0</text></g><ellipse cx="250" cy="25" rx="5" ry="5" stroke="black" stroke-width="2" fill="black" /> <ellipse cx="250" cy="700" rx="5" ry="5" stroke="black" stroke-width="2" fill="black" /> 	<line x1="450" y1="25" x2="450" y2="700" stroke-width="2" stroke="black" />
 <g fill="#000000" font-family="Arial,Helvetica" font-weight="bold" text-anchor="start" font-size="22px">
<text x="455" y="50">Net0</text></g><ellipse cx="450" cy="25" rx="5" ry="5" stroke="black" stroke-width="2" fill="black" /> <ellipse cx="450" cy="700" rx="5" ry="5" stroke="black" stroke-width="2" fill="black" /> <g transform="translate(100.000000,100)">
 <path d="M 0 25 L 25 25, 30 0, 40 50, 50 0, 60 50, 70 0, 75 25, 100 25"
stroke="black" fill="none" stroke-width="2"/>	 </g>	<line x1="50" y1="125" x2="100.000000" y2="125" stroke-width="2" stroke="black" />
 	<line x1="200.000000" y1="125" x2="250" y2="125" stroke-width="2" stroke="black" />
 <ellipse cx="50" cy="125" rx="5" ry="5" stroke="black" stroke-width="2" fill="black" /> <ellipse cx="250" cy="125" rx="5" ry="5" stroke="black" stroke-width="2" fill="black" /> <g fill="#000000" font-family="Arial,Helvetica" font-weight="bold" text-anchor="start" font-size="22px">
<text x="60" y="117">R1</text></g><g fill="#000000" font-family="Arial,Helvetica" font-weight="bold" text-anchor="start" font-size="22px">
<text x="60" y="168">10 K</text></g><g transform="translate(200.000000,300)">
<line x1="0" y1="25" x2="40" y2="25" 
	stroke-width="2" stroke="black" />
	<line x1="40" y1="0" x2="40" y2="50" 
	stroke-width="2" stroke="black" />
	<line x1="60" y1="0" x2="60" y2="50" 
	stroke-width="2" stroke="black" />
	<line x1="60" y1="25" x2="100" y2="25" 
	stroke-width="2" stroke="black" /></g>	<line x1="50" y1="325" x2="200.000000" y2="325" stroke-width="2" stroke="black" />
 	<line x1="300.000000" y1="325" x2="450" y2="325" stroke-width="2" stroke="black" />
 <ellipse cx="50" cy="325" rx="5" ry="5" stroke="black" stroke-width="2" fill="black" /> <ellipse cx="450" cy="325" rx="5" ry="5" stroke="black" stroke-width="2" fill="black" /> <g fill="#000000" font-family="Arial,Helvetica" font-weight="bold" text-anchor="start" font-size="22px">
<text x="60" y="317">C1</text></g><g fill="#000000" font-family="Arial,Helvetica" font-weight="bold" text-anchor="start" font-size="22px">
<text x="60" y="368">100 NF</text></g><g transform="translate(300.000000,500)">

<ellipse cx="50" cy="25" rx="25" ry="25"
	stroke="black" stroke-width="2" fill="none" />  
	
<line x1="0" y1="25" x2="25" y2="25" 
	stroke-width="2" stroke="black" />

<line x1="75" y1="25" x2="100" y2="25" 
	stroke-width="2" stroke="black" />

<line x1="30" y1="25" x2="70" y2="25" 
	stroke-width="2" stroke="black" />

<line x1="50" y1="15" x2="70" y2="25" 
	stroke-width="2" stroke="black" />

<line x1="50" y1="35" x2="70" y2="25" 
	stroke-width="2" stroke="black" /></g>	<line x1="250" y1="525" x2="300.000000" y2="525" stroke-width="2" stroke="black" />
 	<line x1="400.000000" y1="525" x2="450" y2="525" stroke-width="2" stroke="black" />
 <ellipse cx="250" cy="525" rx="5" ry="5" stroke="black" stroke-width="2" fill="black" /> <ellipse cx="450" cy="525" rx="5" ry="5" stroke="black" stroke-width="2" fill="black" /> <g fill="#000000" font-family="Arial,Helvetica" font-weight="bold" text-anchor="start" font-size="22px">
<text x="60" y="517">I1</text></g><g fill="#000000" font-family="Arial,Helvetica" font-weight="bold" text-anchor="start" font-size="22px">
<text x="60" y="568">SINE (0 1 10Khz 0S 0) </text></g>    </g>
    <circle cx="50" cy="50" r="42" fill="white" opacity="0.75"/>
  <path class="button" onmousedown="pan( 0, 50)" d="M50 10 l12   20 a40, 70 0 0,0 -24,  0z" />
  <path class="button" onmousedown="pan( 50, 0)" d="M10 50 l20  -12 a70, 40 0 0,0   0, 24z" />
  <path class="button" onmousedown="pan( 0,-50)" d="M50 90 l12  -20 a40, 70 0 0,1 -24,  0z" />
  <path class="button" onmousedown="pan(-50, 0)" d="M90 50 l-20 -12 a70, 40 0 0,1   0, 24z" />
  
  <circle class="compass" cx="50" cy="50" r="20"/>
  <circle class="button"  cx="50" cy="41" r="8" onclick="zoom(0.8)"/>
  <circle class="button"  cx="50" cy="59" r="8" onclick="zoom(1.25)"/>

  <rect class="plus-minus" x="46" y="39.5" width="8" height="3"/>
  <rect class="plus-minus" x="46" y="57.5" width="8" height="3"/>
  <rect class="plus-minus" x="48.5" y="55" width="3" height="8"/>
</svg>